<svg width="30" height="23" viewBox="0 0 30 23" fill="none" xmlns="http://www.w3.org/2000/svg">
<path d="M3.71243 0.500021H25.9832C26.2411 0.500021 26.4965 0.550825 26.7348 0.649531C26.9731 0.748237 27.1896 0.892913 27.372 1.0753C27.5544 1.25768 27.6991 1.47421 27.7978 1.71251C27.8965 1.9508 27.9473 2.20621 27.9473 2.46414V18.8563H1.73914V2.46414C1.73913 2.20544 1.79024 1.94928 1.88952 1.71038C1.9888 1.47148 2.1343 1.25455 2.31765 1.07204C2.50101 0.889538 2.71862 0.745054 2.95798 0.646889C3.19734 0.548724 3.45373 0.498813 3.71243 0.500021Z" stroke="#01A49E" stroke-linecap="round" stroke-linejoin="round"/>
<path d="M1.31233 18.8563H28.3878C28.6032 18.8563 28.8098 18.9418 28.9622 19.0942C29.1145 19.2465 29.2001 19.4531 29.2001 19.6685V20.9764C29.2001 21.3805 29.0396 21.768 28.7538 22.0537C28.4681 22.3395 28.0806 22.5 27.6765 22.5H2.02363C1.82239 22.5 1.62314 22.4601 1.43739 22.3827C1.25164 22.3053 1.08307 22.1918 0.941409 22.0489C0.799751 21.9059 0.687814 21.7364 0.612062 21.5499C0.53631 21.3635 0.498244 21.1639 0.500062 20.9626V19.6548C0.503673 19.4417 0.590843 19.2386 0.742782 19.0893C0.894722 18.9399 1.09927 18.8562 1.31233 18.8563Z" stroke="#01A49E" stroke-linecap="round" stroke-linejoin="round"/>
<path d="M25.671 2.62473H4.01059V16.7223H25.671V2.62473Z" stroke="#01A49E" stroke-linecap="round" stroke-linejoin="round"/>
<path d="M11.5826 18.8563H18.1037V19.953C18.1037 20.2111 18.0012 20.4585 17.8188 20.641C17.6363 20.8234 17.3889 20.9259 17.1308 20.9259H14.8363H12.5418C12.2837 20.9259 12.0363 20.8234 11.8538 20.641C11.6714 20.4585 11.5689 20.2111 11.5689 19.953V18.8563H11.5826Z" fill="#FDC040" stroke="#01A49E" stroke-linecap="round" stroke-linejoin="round"/>
<path d="M4.19882 20.4166V20.9168" stroke="#01A49E" stroke-linecap="round" stroke-linejoin="round"/>
<path d="M6.44293 20.4166V20.9168" stroke="#01A49E" stroke-linecap="round" stroke-linejoin="round"/>
</svg>
