<svg width="149" height="49" viewBox="0 0 149 49" fill="none" xmlns="http://www.w3.org/2000/svg">
<rect width="55" height="49" rx="24.5" fill="#01A49E"/>
<path d="M16.5 25.5C19.8333 31.8333 28.9 40.7 38.5 25.5" stroke="white"/>
<path d="M73.9045 14.7464C73.8647 14.3454 73.694 14.0339 73.3924 13.8118C73.0908 13.5897 72.6815 13.4787 72.1644 13.4787C71.8131 13.4787 71.5165 13.5284 71.2745 13.6278C71.0326 13.724 70.8469 13.8582 70.7177 14.0305C70.5917 14.2029 70.5288 14.3984 70.5288 14.6172C70.5221 14.7995 70.5603 14.9586 70.6431 15.0945C70.7293 15.2304 70.8469 15.348 70.9961 15.4474C71.1452 15.5436 71.3176 15.6281 71.5131 15.701C71.7087 15.7706 71.9175 15.8303 72.1396 15.88L73.0543 16.0987C73.4985 16.1982 73.9061 16.3307 74.2773 16.4964C74.6486 16.6622 74.9701 16.866 75.2418 17.108C75.5136 17.3499 75.7241 17.6349 75.8732 17.9631C76.0257 18.2912 76.1036 18.6674 76.1069 19.0916C76.1036 19.7147 75.9445 20.255 75.6296 20.7124C75.3181 21.1664 74.8673 21.5194 74.2773 21.7713C73.6907 22.0199 72.9831 22.1442 72.1545 22.1442C71.3325 22.1442 70.6166 22.0182 70.0067 21.7663C69.4002 21.5144 68.9263 21.1416 68.5849 20.6477C68.2468 20.1506 68.0695 19.5357 68.0529 18.8033H70.136C70.1592 19.1446 70.257 19.4297 70.4293 19.6584C70.605 19.8838 70.8387 20.0545 71.1303 20.1705C71.4253 20.2831 71.7584 20.3395 72.1296 20.3395C72.4942 20.3395 72.8107 20.2865 73.0792 20.1804C73.351 20.0743 73.5614 19.9268 73.7106 19.7379C73.8597 19.549 73.9343 19.3319 73.9343 19.0866C73.9343 18.858 73.8664 18.6657 73.7305 18.5099C73.5979 18.3542 73.4023 18.2216 73.1438 18.1122C72.8886 18.0028 72.5754 17.9034 72.2042 17.8139L71.0955 17.5355C70.2371 17.3267 69.5593 17.0002 69.0621 16.5561C68.565 16.112 68.3181 15.5137 68.3214 14.7614C68.3181 14.1449 68.4821 13.6063 68.8136 13.1456C69.1483 12.6849 69.6074 12.3253 70.1907 12.0668C70.774 11.8082 71.4369 11.679 72.1793 11.679C72.935 11.679 73.5946 11.8082 74.158 12.0668C74.7248 12.3253 75.1656 12.6849 75.4805 13.1456C75.7953 13.6063 75.9577 14.1399 75.9677 14.7464H73.9045ZM79.8468 22L76.9334 11.8182H79.285L80.9703 18.8928H81.0549L82.9142 11.8182H84.9277L86.7821 18.9077H86.8716L88.557 11.8182H90.9086L87.9952 22H85.8972L83.9583 15.343H83.8787L81.9448 22H79.8468ZM100.843 16.9091C100.843 18.0194 100.633 18.964 100.212 19.7429C99.794 20.5218 99.224 21.1167 98.5014 21.5277C97.7822 21.9354 96.9735 22.1392 96.0753 22.1392C95.1705 22.1392 94.3584 21.9337 93.6392 21.5227C92.92 21.1117 92.3516 20.5168 91.9339 19.7379C91.5163 18.959 91.3075 18.0161 91.3075 16.9091C91.3075 15.7988 91.5163 14.8542 91.9339 14.0753C92.3516 13.2964 92.92 12.7031 93.6392 12.2955C94.3584 11.8845 95.1705 11.679 96.0753 11.679C96.9735 11.679 97.7822 11.8845 98.5014 12.2955C99.224 12.7031 99.794 13.2964 100.212 14.0753C100.633 14.8542 100.843 15.7988 100.843 16.9091ZM98.6605 16.9091C98.6605 16.1899 98.5528 15.5833 98.3374 15.0895C98.1252 14.5956 97.8253 14.2211 97.4375 13.9659C97.0497 13.7107 96.5956 13.5831 96.0753 13.5831C95.5549 13.5831 95.1009 13.7107 94.7131 13.9659C94.3253 14.2211 94.0237 14.5956 93.8082 15.0895C93.5961 15.5833 93.4901 16.1899 93.4901 16.9091C93.4901 17.6283 93.5961 18.2348 93.8082 18.7287C94.0237 19.2225 94.3253 19.5971 94.7131 19.8523C95.1009 20.1075 95.5549 20.2351 96.0753 20.2351C96.5956 20.2351 97.0497 20.1075 97.4375 19.8523C97.8253 19.5971 98.1252 19.2225 98.3374 18.7287C98.5528 18.2348 98.6605 17.6283 98.6605 16.9091ZM111.794 16.9091C111.794 18.0194 111.584 18.964 111.163 19.7429C110.745 20.5218 110.175 21.1167 109.453 21.5277C108.733 21.9354 107.925 22.1392 107.026 22.1392C106.122 22.1392 105.31 21.9337 104.59 21.5227C103.871 21.1117 103.303 20.5168 102.885 19.7379C102.468 18.959 102.259 18.0161 102.259 16.9091C102.259 15.7988 102.468 14.8542 102.885 14.0753C103.303 13.2964 103.871 12.7031 104.59 12.2955C105.31 11.8845 106.122 11.679 107.026 11.679C107.925 11.679 108.733 11.8845 109.453 12.2955C110.175 12.7031 110.745 13.2964 111.163 14.0753C111.584 14.8542 111.794 15.7988 111.794 16.9091ZM109.612 16.9091C109.612 16.1899 109.504 15.5833 109.289 15.0895C109.076 14.5956 108.776 14.2211 108.389 13.9659C108.001 13.7107 107.547 13.5831 107.026 13.5831C106.506 13.5831 106.052 13.7107 105.664 13.9659C105.276 14.2211 104.975 14.5956 104.759 15.0895C104.547 15.5833 104.441 16.1899 104.441 16.9091C104.441 17.6283 104.547 18.2348 104.759 18.7287C104.975 19.2225 105.276 19.5971 105.664 19.8523C106.052 20.1075 106.506 20.2351 107.026 20.2351C107.547 20.2351 108.001 20.1075 108.389 19.8523C108.776 19.5971 109.076 19.2225 109.289 18.7287C109.504 18.2348 109.612 17.6283 109.612 16.9091Z" fill="black"/>
<path d="M65.5177 28.593V26.8182H73.8799V28.593H70.7627V37H68.6349V28.593H65.5177ZM75.257 37V26.8182H82.1178V28.593H77.4097V31.0192H81.7648V32.794H77.4097V35.2251H82.1377V37H75.257ZM92.8129 30.3828H90.6354C90.5956 30.1011 90.5144 29.8509 90.3918 29.6321C90.2691 29.41 90.1117 29.2211 89.9195 29.0653C89.7272 28.9096 89.5052 28.7902 89.2533 28.7074C89.0047 28.6245 88.7346 28.5831 88.4429 28.5831C87.9159 28.5831 87.4569 28.714 87.0658 28.9759C86.6747 29.2344 86.3714 29.6122 86.156 30.1094C85.9405 30.6032 85.8328 31.2031 85.8328 31.9091C85.8328 32.6349 85.9405 33.2448 86.156 33.7386C86.3747 34.2325 86.6797 34.6054 87.0708 34.8572C87.4619 35.1091 87.9143 35.2351 88.428 35.2351C88.7164 35.2351 88.9832 35.197 89.2284 35.1207C89.477 35.0445 89.6974 34.9335 89.8896 34.7876C90.0819 34.6385 90.241 34.4579 90.3669 34.2457C90.4962 34.0336 90.5857 33.7917 90.6354 33.5199L92.8129 33.5298C92.7566 33.9972 92.6157 34.4479 92.3904 34.8821C92.1683 35.313 91.8683 35.6991 91.4905 36.0405C91.116 36.3786 90.6685 36.647 90.1482 36.8459C89.6311 37.0414 89.0461 37.1392 88.3932 37.1392C87.4851 37.1392 86.673 36.9337 85.9571 36.5227C85.2445 36.1117 84.6811 35.5168 84.2668 34.7379C83.8558 33.959 83.6503 33.0161 83.6503 31.9091C83.6503 30.7988 83.8591 29.8542 84.2767 29.0753C84.6943 28.2964 85.2611 27.7031 85.977 27.2955C86.6929 26.8845 87.4983 26.679 88.3932 26.679C88.9832 26.679 89.53 26.7618 90.0338 26.9276C90.5409 27.0933 90.99 27.3352 91.3811 27.6534C91.7722 27.9683 92.0904 28.3544 92.3357 28.8118C92.5843 29.2692 92.7433 29.7929 92.8129 30.3828ZM94.3566 37V26.8182H96.5093V31.0192H100.879V26.8182H103.027V37H100.879V32.794H96.5093V37H94.3566ZM108.042 26.8182H110.697L113.501 33.6591H113.62L116.424 26.8182H119.079V37H116.991V30.3729H116.907L114.272 36.9503H112.85L110.215 30.348H110.13V37H108.042V26.8182ZM122.608 37H120.301L123.816 26.8182H126.59L130.1 37H127.793L125.243 29.1449H125.163L122.608 37ZM122.464 32.9979H127.912V34.6783H122.464V32.9979ZM131.325 37V26.8182H135.342C136.111 26.8182 136.768 26.9557 137.311 27.2308C137.858 27.5026 138.274 27.8887 138.559 28.3892C138.847 28.8864 138.992 29.4714 138.992 30.1442C138.992 30.8203 138.846 31.402 138.554 31.8892C138.262 32.3731 137.84 32.7443 137.286 33.0028C136.736 33.2614 136.07 33.3906 135.288 33.3906H132.598V31.6605H134.94C135.351 31.6605 135.692 31.6042 135.964 31.4915C136.236 31.3788 136.438 31.2098 136.57 30.9844C136.706 30.759 136.774 30.4789 136.774 30.1442C136.774 29.8061 136.706 29.5211 136.57 29.2891C136.438 29.0571 136.234 28.8814 135.959 28.7621C135.687 28.6394 135.344 28.5781 134.93 28.5781H133.478V37H131.325ZM136.824 32.3665L139.354 37H136.978L134.502 32.3665H136.824ZM140.125 28.593V26.8182H148.487V28.593H145.37V37H143.242V28.593H140.125Z" fill="black"/>
</svg>
