<svg width="10" height="6" viewBox="0 0 10 6" fill="none" xmlns="http://www.w3.org/2000/svg">
<path opacity="0.8" d="M4.39687 5.64375L0.153119 1.4C0.0510356 1.29792 -6.10575e-06 1.17396 -6.10575e-06 1.02813C-6.10575e-06 0.882292 0.0510356 0.758333 0.153119 0.65625L0.634369 0.175C0.736452 0.0729168 0.860411 0.0218751 1.00624 0.0218751C1.15208 0.00729179 1.27604 0.0510418 1.37812 0.153125L4.76874 3.54375L8.15937 0.153125C8.26145 0.0510418 8.38541 0.00729179 8.53124 0.0218751C8.67708 0.0218751 8.80104 0.0729168 8.90312 0.175L9.38437 0.65625C9.48645 0.758333 9.53749 0.882292 9.53749 1.02813C9.53749 1.17396 9.48645 1.29792 9.38437 1.4L5.14062 5.64375C5.03854 5.76042 4.91458 5.81875 4.76874 5.81875C4.62291 5.81875 4.49895 5.76042 4.39687 5.64375Z" fill="black"/>
</svg>
