<svg width="13" height="13" viewBox="0 0 13 13" fill="none" xmlns="http://www.w3.org/2000/svg">
<path d="M6.15234 2.98047C7.87499 2.98047 9.29687 4.40234 9.29687 6.125C9.29687 7.875 7.87499 9.26953 6.15234 9.26953C4.40234 9.26953 3.00781 7.875 3.00781 6.125C3.00781 4.40234 4.40234 2.98047 6.15234 2.98047ZM6.15234 8.17578C7.27343 8.17578 8.17578 7.27344 8.17578 6.125C8.17578 5.00391 7.27343 4.10156 6.15234 4.10156C5.0039 4.10156 4.10156 5.00391 4.10156 6.125C4.10156 7.27344 5.03124 8.17578 6.15234 8.17578ZM10.1445 2.87109C10.1445 3.28125 9.8164 3.60938 9.40624 3.60938C8.99609 3.60938 8.66796 3.28125 8.66796 2.87109C8.66796 2.46094 8.99609 2.13281 9.40624 2.13281C9.8164 2.13281 10.1445 2.46094 10.1445 2.87109ZM12.2227 3.60938C12.2773 4.62109 12.2773 7.65625 12.2227 8.66797C12.168 9.65234 11.9492 10.5 11.2383 11.2383C10.5273 11.9492 9.65234 12.168 8.66796 12.2227C7.65624 12.2773 4.62109 12.2773 3.60937 12.2227C2.62499 12.168 1.77734 11.9492 1.03906 11.2383C0.328119 10.5 0.109369 9.65234 0.0546813 8.66797C-6.19888e-06 7.65625 -6.19888e-06 4.62109 0.0546813 3.60938C0.109369 2.625 0.328119 1.75 1.03906 1.03906C1.77734 0.328125 2.62499 0.109375 3.60937 0.0546875C4.62109 0 7.65624 0 8.66796 0.0546875C9.65234 0.109375 10.5273 0.328125 11.2383 1.03906C11.9492 1.75 12.168 2.625 12.2227 3.60938ZM10.9102 9.73438C11.2383 8.94141 11.1562 7.02734 11.1562 6.125C11.1562 5.25 11.2383 3.33594 10.9102 2.51562C10.6914 1.99609 10.2812 1.55859 9.76171 1.36719C8.9414 1.03906 7.02734 1.12109 6.15234 1.12109C5.24999 1.12109 3.33593 1.03906 2.54296 1.36719C1.99609 1.58594 1.58593 1.99609 1.36718 2.51562C1.03906 3.33594 1.12109 5.25 1.12109 6.125C1.12109 7.02734 1.03906 8.94141 1.36718 9.73438C1.58593 10.2812 1.99609 10.6914 2.54296 10.9102C3.33593 11.2383 5.24999 11.1562 6.15234 11.1562C7.02734 11.1562 8.9414 11.2383 9.76171 10.9102C10.2812 10.6914 10.7187 10.2812 10.9102 9.73438Z" fill="black"/>
</svg>
