<svg width="14" height="14" viewBox="0 0 14 14" fill="none" xmlns="http://www.w3.org/2000/svg">
<path d="M13.5625 6.78125C13.5625 10.5273 10.5273 13.5625 6.78125 13.5625C6.07032 13.5625 5.38672 13.4805 4.75782 13.2617C5.03125 12.8242 5.44141 12.0859 5.60547 11.4844C5.6875 11.1836 6.01563 9.87109 6.01563 9.87109C6.23438 10.3086 6.89063 10.6641 7.57422 10.6641C9.625 10.6641 11.1016 8.77734 11.1016 6.45312C11.1016 4.21094 9.26954 2.51562 6.91797 2.51562C3.99219 2.51562 2.4336 4.48438 2.4336 6.61719C2.4336 7.62891 2.95313 8.85938 3.80079 9.26953C3.9375 9.32422 4.01954 9.29688 4.04688 9.16016C4.04688 9.07812 4.1836 8.61328 4.23829 8.39453C4.23829 8.33984 4.23829 8.25781 4.1836 8.20312C3.91016 7.875 3.69141 7.24609 3.69141 6.64453C3.69141 5.16797 4.8125 3.71875 6.75391 3.71875C8.39454 3.71875 9.57032 4.83984 9.57032 6.48047C9.57032 8.3125 8.64063 9.57031 7.4375 9.57031C6.78125 9.57031 6.28907 9.02344 6.42579 8.36719C6.61719 7.54688 7 6.67188 7 6.09766C7 5.57812 6.72657 5.14062 6.15235 5.14062C5.46875 5.14062 4.92188 5.85156 4.92188 6.78125C4.92188 7.38281 5.11329 7.79297 5.11329 7.79297C5.11329 7.79297 4.45704 10.6367 4.32032 11.1562C4.1836 11.7578 4.23829 12.5781 4.29297 13.0977C1.77735 12.1133 3.8147e-06 9.67969 3.8147e-06 6.78125C3.8147e-06 3.03516 3.03516 0 6.78125 0C10.5273 0 13.5625 3.03516 13.5625 6.78125Z" fill="black"/>
</svg>
